<svg id="Layer_1" data-name="Layer 1" xmlns="http://www.w3.org/2000/svg" viewBox="0 0 150 35"><defs><style>.cls-1{fill:#f3a41f;}.cls-2{fill:#231f20;}</style></defs><title>GetBucks logo</title><path class="cls-1" d="M140.52,31.45a1.94,1.94,0,0,0,.59.65,2.56,2.56,0,0,0,.83.38,4,4,0,0,0,1,.12,3.67,3.67,0,0,0,.76-.09,2.47,2.47,0,0,0,.72-.26,1.65,1.65,0,0,0,.54-.48,1.25,1.25,0,0,0,.22-.76c0-.52-.34-.9-1-1.16a19.82,19.82,0,0,0-2.84-.76c-.5-.12-1-.25-1.46-.4a5.08,5.08,0,0,1-1.26-.6,2.88,2.88,0,0,1-.89-.94,2.68,2.68,0,0,1-.33-1.38,3.78,3.78,0,0,1,.47-2,3.4,3.4,0,0,1,1.24-1.21,5.33,5.33,0,0,1,1.73-.62,10.58,10.58,0,0,1,2-.18,9.74,9.74,0,0,1,2,.2,5.13,5.13,0,0,1,1.69.65,3.87,3.87,0,0,1,1.24,1.22,4,4,0,0,1,.58,1.91H145a1.51,1.51,0,0,0-.76-1.34,3.4,3.4,0,0,0-1.57-.38,6.14,6.14,0,0,0-.63,0,2,2,0,0,0-.61.15,1.28,1.28,0,0,0-.47.34.92.92,0,0,0-.19.62.93.93,0,0,0,.33.76,2.59,2.59,0,0,0,.88.47,10.84,10.84,0,0,0,1.24.32l1.42.32a14.76,14.76,0,0,1,1.45.41,4.79,4.79,0,0,1,1.26.64,3.08,3.08,0,0,1,.89,1,2.92,2.92,0,0,1,.33,1.45,3.78,3.78,0,0,1-1.78,3.4,5.2,5.2,0,0,1-1.82.7,10.57,10.57,0,0,1-2.07.2,10.29,10.29,0,0,1-2.12-.22,5.55,5.55,0,0,1-1.84-.72,4.09,4.09,0,0,1-1.32-1.34,4.21,4.21,0,0,1-.57-2.08h3.24a1.86,1.86,0,0,0,.23.95m-12.9-14.11,0,9.2,4.31-4.46h4l-4.69,4.56,5.2,7.86h-4.13L128.91,29l-1.32,1.27v4.28h-3.4l0-17.15ZM116,24.29a2.39,2.39,0,0,0-1.37.38,2.92,2.92,0,0,0-.91,1,4.18,4.18,0,0,0-.5,1.31,7.38,7.38,0,0,0-.14,1.4,6.86,6.86,0,0,0,.14,1.37A4.15,4.15,0,0,0,113.7,31a2.7,2.7,0,0,0,.87.93,2.43,2.43,0,0,0,1.34.38,2.5,2.5,0,0,0,1.89-.68,3.23,3.23,0,0,0,.83-1.83h3.29A5.69,5.69,0,0,1,120,33.54a6.21,6.21,0,0,1-4.06,1.29,6.82,6.82,0,0,1-2.55-.47,5.52,5.52,0,0,1-2-1.31,5.81,5.81,0,0,1-1.27-2,6.84,6.84,0,0,1-.45-2.59,8.44,8.44,0,0,1,.42-2.68,6.16,6.16,0,0,1,1.25-2.13,5.64,5.64,0,0,1,2-1.4,6.77,6.77,0,0,1,2.7-.5,7.81,7.81,0,0,1,2.12.29,5.63,5.63,0,0,1,1.82.88,4.53,4.53,0,0,1,1.89,3.55h-3.34A2.29,2.29,0,0,0,116,24.29M104.22,34.46V32.73h-.07a3.83,3.83,0,0,1-1.68,1.56,4.91,4.91,0,0,1-2.12.48,5.94,5.94,0,0,1-2.24-.38,3.23,3.23,0,0,1-1.38-1A3.93,3.93,0,0,1,96,31.76a9.7,9.7,0,0,1-.2-2.1V22h3.4v7a4.35,4.35,0,0,0,.48,2.3,1.86,1.86,0,0,0,1.7.76,2.37,2.37,0,0,0,2-.83,4.59,4.59,0,0,0,.63-2.73V22h3.4l0,12.46Zm-17.14-3a5,5,0,0,0,1.05-.11A2.61,2.61,0,0,0,89,31a1.86,1.86,0,0,0,.61-.7,2.32,2.32,0,0,0,.23-1.1,2.19,2.19,0,0,0-.76-1.89,3.17,3.17,0,0,0-2-.57H83v4.71Zm.29-14.22a10.68,10.68,0,0,1,2.24.22,4.81,4.81,0,0,1,1.73.71,3.28,3.28,0,0,1,1.11,1.31,4.64,4.64,0,0,1,.38,2,3.8,3.8,0,0,1-.59,2.16,4.27,4.27,0,0,1-1.75,1.42,4.13,4.13,0,0,1,2.37,1.6,5.29,5.29,0,0,1,.27,5,4.37,4.37,0,0,1-1.36,1.54,5.94,5.94,0,0,1-1.95.88,8.61,8.61,0,0,1-2.27.29H79.23l0-17.15Zm-.49,6.94a2.69,2.69,0,0,0,1.66-.48,1.81,1.81,0,0,0,.65-1.56,2,2,0,0,0-.22-1,1.65,1.65,0,0,0-.57-.6,2.51,2.51,0,0,0-.83-.3,5.83,5.83,0,0,0-1-.08H83.06v4Z"/><path class="cls-2" d="M76.9,22v1.8H74.42v7.72a2.27,2.27,0,0,0,.06.58.58.58,0,0,0,.23.34,1,1,0,0,0,.47.16,5.83,5.83,0,0,0,.78,0h.94v1.8H75.34A7.21,7.21,0,0,1,74,34.31a2,2,0,0,1-.91-.4,1.65,1.65,0,0,1-.51-.82,4.53,4.53,0,0,1-.17-1.39V23.8H70.28V22H72.4V18.25h2V22ZM67.46,33.6a5.67,5.67,0,0,1-3.51,1,6.4,6.4,0,0,1-2.58-.49,5,5,0,0,1-1.81-1.35,5.7,5.7,0,0,1-1.13-2.07A10.13,10.13,0,0,1,58,28.13a7.48,7.48,0,0,1,.44-2.59,6.19,6.19,0,0,1,1.22-2,5.49,5.49,0,0,1,1.85-1.34,5.64,5.64,0,0,1,2.35-.48,5.07,5.07,0,0,1,2.75.69,5.42,5.42,0,0,1,1.75,1.75,6.85,6.85,0,0,1,.91,2.31,9.93,9.93,0,0,1,.2,2.38h-9.3a5,5,0,0,0,.19,1.55,3.49,3.49,0,0,0,1.93,2.18,4.15,4.15,0,0,0,1.75.34,3.52,3.52,0,0,0,2.13-.6,2.91,2.91,0,0,0,1.1-1.82h2a5,5,0,0,1-1.81,3.15m-.48-8a3.45,3.45,0,0,0-1.85-1.87,3.5,3.5,0,0,0-1.4-.28,3.55,3.55,0,0,0-1.43.27,3.27,3.27,0,0,0-1.1.76,3.56,3.56,0,0,0-.73,1.13A4.35,4.35,0,0,0,60.18,27h7.14A4.26,4.26,0,0,0,67,25.62M51.11,34.16a8.17,8.17,0,0,1-3,.58A8,8,0,0,1,44.65,34a7.74,7.74,0,0,1-2.57-1.91,8.33,8.33,0,0,1-1.6-2.76,9.73,9.73,0,0,1-.54-3.24,12.09,12.09,0,0,1,.52-3.57,8.72,8.72,0,0,1,1.54-3,7.41,7.41,0,0,1,2.55-2,7.93,7.93,0,0,1,3.57-.76,10.3,10.3,0,0,1,2.64.33,6.7,6.7,0,0,1,2.21,1,6.12,6.12,0,0,1,1.63,1.77,7,7,0,0,1,.9,2.59H53.23a4.49,4.49,0,0,0-.63-1.69,4,4,0,0,0-1.13-1.17A5,5,0,0,0,50,18.94a7.11,7.11,0,0,0-1.81-.23A5.22,5.22,0,0,0,43.64,21a7.13,7.13,0,0,0-1.07,2.32A10.69,10.69,0,0,0,42.22,26a8.74,8.74,0,0,0,.38,2.58,6.75,6.75,0,0,0,1.13,2.19,5.53,5.53,0,0,0,1.84,1.51,5.42,5.42,0,0,0,2.53.57,6.12,6.12,0,0,0,2.39-.42,4.91,4.91,0,0,0,2.81-3,5.85,5.85,0,0,0,.32-2.2H48.15V25.32h7.52l0,9H54.21l-.6-2.13a5.71,5.71,0,0,1-2.5,1.93"/><path class="cls-1" d="M18.43.12a17,17,0,1,0,17,17.05A17,17,0,0,0,18.43.12ZM30.17,13.67A12.12,12.12,0,1,0,13.69,28.18L22.2,19.7H12V17l14.82,0,0,12.42a14.5,14.5,0,0,1-2.72,1.43V21.61l-9.7,9.68A14.85,14.85,0,0,1,3.91,19.52h0c-.06-.38-.11-.76-.14-1.16v-.14c0-.38,0-.76,0-1.16A14.84,14.84,0,0,1,18.57,2.24a9,9,0,0,1,1.06,0h.17a14.83,14.83,0,0,1,12.49,9.29Z"/></svg>